<svg width="300" height="61" viewBox="0 0 300 61" fill="none" xmlns="http://www.w3.org/2000/svg">
<path d="M0 6.527H8.62174V51.972H32.4833V59.963H0V6.527ZM40.9836 6.527C43.898 6.527 46.3874 8.784 46.3874 11.773C46.3874 14.762 43.9587 17.141 40.9836 17.141C38.0085 17.141 35.5798 14.762 35.5798 11.773C35.5798 8.845 37.9478 6.527 40.9836 6.527ZM36.7335 21.472H44.9909V60.024H36.7335V21.472ZM49.9089 21.472H58.1664V26.779C60.595 22.692 64.7845 20.435 70.3704 20.435C79.3564 20.435 84.9423 27.45 84.9423 38.552V59.963H76.6849V39.345C76.6849 32.147 73.5276 28.06 67.881 28.06C61.6272 28.06 58.2271 32.33 58.2271 40.016V59.963H49.9089V21.472ZM89.3139 6.527H97.5713V40.321L112.993 21.472H123.376L106.922 40.748L123.376 59.963H112.993L97.5713 41.175V59.963H89.3139V6.527ZM126.655 11.651H135.094V21.472H144.93V28.365H135.094V48.19C135.094 50.691 136.612 52.277 139.041 52.277H144.566V60.024H137.948C130.783 60.024 126.715 55.754 126.715 48.19L126.655 11.651ZM149.12 21.472H156.77V26.23C158.834 22.57 162.234 20.435 166.424 20.435C167.699 20.435 168.367 20.496 169.338 20.801V28.487C168.792 28.365 167.942 28.182 166.242 28.182C160.17 28.182 156.831 33.306 156.831 42.09V59.902H148.573V21.472H149.12ZM188.707 20.435C197.814 20.435 207.711 25.925 207.711 41.602V42.7H178.081C178.749 49.593 182.696 53.375 189.375 53.375C194.171 53.375 198.178 50.813 199.089 47.214H207.529C206.618 54.9 198.604 61 189.314 61C177.413 61 169.885 53.253 169.885 40.687C169.885 29.524 177.11 20.435 188.707 20.435ZM198.846 35.868C197.693 31.11 193.928 28.121 188.707 28.121C183.667 28.121 180.085 31.171 178.689 35.868H198.846ZM230.176 20.435C239.284 20.435 249.18 25.925 249.18 41.602V42.7H219.551C220.219 49.593 224.165 53.375 230.844 53.375C235.641 53.375 239.648 50.813 240.559 47.214H248.937C248.087 54.9 240.073 61 230.783 61C218.883 61 211.354 53.253 211.354 40.687C211.354 29.524 218.579 20.435 230.176 20.435ZM240.316 35.868C239.162 31.11 235.398 28.121 230.115 28.121C225.076 28.121 221.494 31.171 220.097 35.868H240.316ZM251.184 20.313H265.938L255.434 10.309L261.202 4.392L271.22 14.64V0H279.903V14.64L289.921 4.392L295.689 10.309L285.185 20.313H299.939V28.609H285.064L295.689 38.857L289.921 44.652L275.531 30.195L261.141 44.652L255.373 38.857L265.938 28.548H251.063V20.313H251.184ZM271.281 40.382H279.964V60.024H271.281V40.382Z" fill="black"/>
</svg>
